# xmcd
#
# Track frame offsets: 
#        150
#        15606
#        30944
#        46664
#        59812
#        76972
#        89207
#        104996
#        119247
#        133527
#        148644
#        165109
#        177140
#
# Disc length: 2582 seconds
#
# Revision: 0
# Processed by: cddbd v1.5.2PL0 Copyright (c) Steve Scherf et al.
# Submitted via: ExactAudioCopy v1.0b1
#
DISCID=b10a140d
DTITLE=Randy Travis - Influence Vol. 1, The Man I Am
DYEAR=2013
DGENRE=Country
TTITLE0=Someday We'll Look Back
TTITLE1=Big Butter And Egg Man
TTITLE2=What Have You Got Planned Tonight Diana
TTITLE3=Ever Changing Woman
TTITLE4=Pennies From Heaven
TTITLE5=Thanks A Lot
TTITLE6=Trouble In Mind
TTITLE7=My Mary
TTITLE8=Saginaw, Michigan
TTITLE9=I'm Always On A Mountain When I Fall
TTITLE10=You Asked Me To
TTITLE11=Why Baby Why
TTITLE12=Tonight I'm Playing Possum With Joe Nichols
EXTD=
EXTT0=
EXTT1=
EXTT2=
EXTT3=
EXTT4=
EXTT5=
EXTT6=
EXTT7=
EXTT8=
EXTT9=
EXTT10=
EXTT11=
EXTT12=
PLAYORDER=
